<svg version="1.1" viewBox="0.0 0.0 960.0 540.0" fill="none" stroke="none" stroke-linecap="square" stroke-miterlimit="10" xmlns:xlink="http://www.w3.org/1999/xlink" xmlns="http://www.w3.org/2000/svg"><clipPath id="g37a51ca3b89_3_92.0"><path d="m0 0l960.0 0l0 540.0l-960.0 0l0 -540.0z" clip-rule="nonzero"/></clipPath><g clip-path="url(#g37a51ca3b89_3_92.0)"><path fill="#ffffff" d="m0 0l960.0 0l0 540.0l-960.0 0z" fill-rule="evenodd"/><path fill="#000000" fill-opacity="0.0" d="m130.45145 234.38058l0 0c0 -65.25658 55.46028 -118.157486 123.87401 -118.157486l0 0c32.85344 0 64.36128 12.4487 87.59215 34.60753c23.230896 22.158813 36.28186 52.21263 36.28186 83.54996l0 0c0 65.25656 -55.460266 118.15747 -123.87401 118.15747l0 0c-68.41373 0 -123.87401 -52.90091 -123.87401 -118.15747z" fill-rule="evenodd"/><path stroke="#1c4587" stroke-width="12.0" stroke-linejoin="round" stroke-linecap="butt" d="m130.45145 234.38058l0 0c0 -65.25658 55.46028 -118.157486 123.87401 -118.157486l0 0c32.85344 0 64.36128 12.4487 87.59215 34.60753c23.230896 22.158813 36.28186 52.21263 36.28186 83.54996l0 0c0 65.25656 -55.460266 118.15747 -123.87401 118.15747l0 0c-68.41373 0 -123.87401 -52.90091 -123.87401 -118.15747z" fill-rule="evenodd"/><path fill="#ffffff" d="m247.3202 116.2231l146.00993 0l0 0c7.7450256 0 15.172821 3.0766983 20.649414 8.553268c5.4765625 5.4765625 8.553253 12.904373 8.553253 20.649414l0 223.6792l-175.2126 0z" fill-rule="evenodd"/><path stroke="#1c4587" stroke-width="4.0" stroke-linejoin="round" stroke-linecap="butt" d="m247.3202 116.2231l146.00993 0l0 0c7.7450256 0 15.172821 3.0766983 20.649414 8.553268c5.4765625 5.4765625 8.553253 12.904373 8.553253 20.649414l0 223.6792l-175.2126 0z" fill-rule="evenodd"/><path fill="#ffffff" d="m213.0316 104.732285l68.7032 0c1.4604492 0 2.8611145 0.58016205 3.8937988 1.6128693c1.0327148 1.0326996 1.612854 2.433342 1.612854 3.8937988l0 11.013016l0 0c0 9.123566 -7.3960876 16.519684 -16.519684 16.519684l-46.677155 0c-9.123566 0 -16.519684 -7.396118 -16.519684 -16.519684l0 -11.013016l0 0c0 -3.0412445 2.4654236 -5.506668 5.506668 -5.506668z" fill-rule="evenodd"/><path stroke="#1c4587" stroke-width="4.0" stroke-linejoin="round" stroke-linecap="butt" d="m213.0316 104.732285l68.7032 0c1.4604492 0 2.8611145 0.58016205 3.8937988 1.6128693c1.0327148 1.0326996 1.612854 2.433342 1.612854 3.8937988l0 11.013016l0 0c0 9.123566 -7.3960876 16.519684 -16.519684 16.519684l-46.677155 0c-9.123566 0 -16.519684 -7.396118 -16.519684 -16.519684l0 -11.013016l0 0c0 -3.0412445 2.4654236 -5.506668 5.506668 -5.506668z" fill-rule="evenodd"/><path fill="#000000" fill-opacity="0.0" d="m272.042 262.56775l120.75067 0l0 63.433075l168.03674 0" fill-rule="evenodd"/><path stroke="#ff6e21" stroke-width="4.0" stroke-linejoin="round" stroke-linecap="butt" d="m272.042 262.56775l120.75067 0l0 63.433075l152.87677 0" fill-rule="evenodd"/><path stroke="#ff6e21" stroke-width="4.0" stroke-linecap="butt" d="m558.8294 326.00082c0 3.6340332 -2.945984 6.5799866 -6.580017 6.5799866c-3.6340332 0 -6.580017 -2.9459534 -6.580017 -6.5799866c0 -3.6340332 2.945984 -6.580017 6.580017 -6.580017c3.6340332 0 6.580017 2.945984 6.580017 6.580017z" fill-rule="nonzero"/><path fill="#000000" fill-opacity="0.0" d="m272.042 293.92972l112.188965 0.5354309" fill-rule="evenodd"/><path stroke="#ff6e21" stroke-width="4.0" stroke-linejoin="round" stroke-linecap="butt" d="m272.042 293.92972l112.188965 0.5354309" fill-rule="evenodd"/><path fill="#ffffff" d="m236.24934 145.05249l14.362198 0l0 61.76378l-14.362198 0z" fill-rule="evenodd"/><path stroke="#ffffff" stroke-width="1.0" stroke-linejoin="round" stroke-linecap="butt" d="m236.24934 145.05249l14.362198 0l0 61.76378l-14.362198 0z" fill-rule="evenodd"/><path fill="#1c4587" d="m218.09361 155.61284l0 0c0 -1.3478394 1.0926514 -2.4404907 2.4404907 -2.4404907l50.237137 0c0.6472473 0 1.2680054 0.25712585 1.7256775 0.71481323c0.45767212 0.45767212 0.71481323 1.0784149 0.71481323 1.7256775l0 0.12690735l0 0c0 1.3478394 -1.0926514 2.4404755 -2.4404907 2.4404755l-50.237137 0c-1.3478394 0 -2.4404907 -1.0926361 -2.4404907 -2.4404755z" fill-rule="evenodd"/><path stroke="#1c4587" stroke-width="1.0" stroke-linejoin="round" stroke-linecap="butt" d="m218.09361 155.61284l0 0c0 -1.3478394 1.0926514 -2.4404907 2.4404907 -2.4404907l50.237137 0c0.6472473 0 1.2680054 0.25712585 1.7256775 0.71481323c0.45767212 0.45767212 0.71481323 1.0784149 0.71481323 1.7256775l0 0.12690735l0 0c0 1.3478394 -1.0926514 2.4404755 -2.4404907 2.4404755l-50.237137 0c-1.3478394 0 -2.4404907 -1.0926361 -2.4404907 -2.4404755z" fill-rule="evenodd"/><path fill="#1c4587" d="m209.74716 173.79788l0 0c0 -1.3478394 1.0926361 -2.4404907 2.4404755 -2.4404907l74.835556 0c0.64727783 0 1.2680054 0.25712585 1.725708 0.714798c0.45767212 0.45768738 0.7147827 1.0784302 0.7147827 1.7256927l0 0.12689209l0 0c0 1.3478546 -1.0926208 2.4404907 -2.4404907 2.4404907l-74.835556 0c-1.3478394 0 -2.4404755 -1.0926361 -2.4404755 -2.4404907z" fill-rule="evenodd"/><path stroke="#1c4587" stroke-width="1.0" stroke-linejoin="round" stroke-linecap="butt" d="m209.74716 173.79788l0 0c0 -1.3478394 1.0926361 -2.4404907 2.4404755 -2.4404907l74.835556 0c0.64727783 0 1.2680054 0.25712585 1.725708 0.714798c0.45767212 0.45768738 0.7147827 1.0784302 0.7147827 1.7256927l0 0.12689209l0 0c0 1.3478546 -1.0926208 2.4404907 -2.4404907 2.4404907l-74.835556 0c-1.3478394 0 -2.4404755 -1.0926361 -2.4404755 -2.4404907z" fill-rule="evenodd"/><path fill="#1c4587" d="m194.41382 194.53935l0 0c0 -1.3478394 1.0926514 -2.4404907 2.4404907 -2.4404907l105.512726 0c0.6472473 0 1.2680054 0.25712585 1.7256775 0.714798c0.45770264 0.45768738 0.71481323 1.0784302 0.71481323 1.7256927l0 0.12689209l0 0c0 1.3478546 -1.0926514 2.4404907 -2.4404907 2.4404907l-105.512726 0c-1.3478394 0 -2.4404907 -1.0926361 -2.4404907 -2.4404907z" fill-rule="evenodd"/><path stroke="#1c4587" stroke-width="1.0" stroke-linejoin="round" stroke-linecap="butt" d="m194.41382 194.53935l0 0c0 -1.3478394 1.0926514 -2.4404907 2.4404907 -2.4404907l105.512726 0c0.6472473 0 1.2680054 0.25712585 1.7256775 0.714798c0.45770264 0.45768738 0.71481323 1.0784302 0.71481323 1.7256927l0 0.12689209l0 0c0 1.3478546 -1.0926514 2.4404907 -2.4404907 2.4404907l-105.512726 0c-1.3478394 0 -2.4404907 -1.0926361 -2.4404907 -2.4404907z" fill-rule="evenodd"/><path fill="#000000" fill-opacity="0.0" d="m399.62204 293.83438l101.25986 0.72442627" fill-rule="evenodd"/><path stroke="#ff6e21" stroke-width="4.0" stroke-linejoin="round" stroke-linecap="butt" d="m399.62204 293.8344l86.10025 0.6159363" fill-rule="evenodd"/><path stroke="#ff6e21" stroke-width="4.0" stroke-linecap="butt" d="m498.88193 294.5445c-0.025970459 3.6339417 -2.9929504 6.558777 -6.626892 6.532776c-3.6339417 -0.026000977 -6.5587463 -2.992981 -6.5327454 -6.6269226c0.025970459 -3.6339417 2.9929504 -6.5587463 6.626892 -6.5327454c3.6339417 0.026000977 6.5587463 2.9929504 6.5327454 6.626892z" fill-rule="nonzero"/><path fill="#000000" fill-opacity="0.0" d="m272.042 231.24052l85.5748 0.69291687" fill-rule="evenodd"/><path stroke="#ff6e21" stroke-width="4.0" stroke-linejoin="round" stroke-linecap="butt" d="m272.042 231.24052l85.5748 0.69291687" fill-rule="evenodd"/><path fill="#000000" fill-opacity="0.0" d="m427.50797 353.97345l203.68503 1.102356" fill-rule="evenodd"/><path stroke="#ff6e21" stroke-width="4.0" stroke-linejoin="round" stroke-linecap="butt" d="m427.50797 353.97342l188.52524 1.0202942" fill-rule="evenodd"/><path stroke="#ff6e21" stroke-width="4.0" stroke-linecap="butt" d="m629.19305 355.06497c-0.019714355 3.6339722 -2.9815674 6.563965 -6.6155396 6.544281c-3.6339722 -0.01965332 -6.563965 -2.9815369 -6.5443115 -6.615509c0.01965332 -3.6339722 2.9815674 -6.563965 6.6155396 -6.544281c3.6339722 0.01965332 6.563965 2.9815063 6.5443115 6.615509z" fill-rule="nonzero"/></g></svg>