<svg version="1.1" viewBox="0.0 0.0 960.0 540.0" fill="none" stroke="none" stroke-linecap="square" stroke-miterlimit="10" xmlns:xlink="http://www.w3.org/1999/xlink" xmlns="http://www.w3.org/2000/svg"><clipPath id="g37a4a4d6398_0_213.0"><path d="m0 0l960.0 0l0 540.0l-960.0 0l0 -540.0z" clip-rule="nonzero"/></clipPath><g clip-path="url(#g37a4a4d6398_0_213.0)"><path fill="#ffffff" d="m0 0l960.0 0l0 540.0l-960.0 0z" fill-rule="evenodd"/><path fill="#000000" fill-opacity="0.0" d="m130.45145 234.38058l0 0c0 -65.25658 55.46028 -118.157486 123.87401 -118.157486l0 0c32.85344 0 64.36128 12.4487 87.59215 34.60753c23.230896 22.158813 36.28186 52.21263 36.28186 83.54996l0 0c0 65.25656 -55.460266 118.15747 -123.87401 118.15747l0 0c-68.41373 0 -123.87401 -52.90091 -123.87401 -118.15747z" fill-rule="evenodd"/><path stroke="#1c4587" stroke-width="12.0" stroke-linejoin="round" stroke-linecap="butt" d="m130.45145 234.38058l0 0c0 -65.25658 55.46028 -118.157486 123.87401 -118.157486l0 0c32.85344 0 64.36128 12.4487 87.59215 34.60753c23.230896 22.158813 36.28186 52.21263 36.28186 83.54996l0 0c0 65.25656 -55.460266 118.15747 -123.87401 118.15747l0 0c-68.41373 0 -123.87401 -52.90091 -123.87401 -118.15747z" fill-rule="evenodd"/><path fill="#000000" fill-opacity="0.0" d="m441.01837 116.2231l373.22833 0l0 184.22047l-373.22833 0z" fill-rule="evenodd"/><path fill="#1c4587" d="m464.31525 137.03748q4.671875 0 7.703125 1.125q3.03125 1.125 4.5 3.40625q1.484375 2.265625 1.484375 5.734375q0 2.34375 -0.890625 4.109375q-0.890625 1.75 -2.34375 2.96875q-1.453125 1.21875 -3.140625 1.984375l10.078125 14.9375l-8.0625 0l-8.171875 -13.15625l-3.875 0l0 13.15625l-7.265625 0l0 -34.265625l9.984375 0zm-0.515625 5.953125l-2.203125 0l0 9.25l2.34375 0q3.609375 0 5.171875 -1.203125q1.5625 -1.203125 1.5625 -3.546875q0 -2.4375 -1.6875 -3.46875q-1.671875 -1.03125 -5.1875 -1.03125zm32.390625 1.5625q5.28125 0 8.09375 2.296875q2.8125 2.296875 2.8125 6.984375l0 17.46875l-5.0 0l-1.375 -3.5625l-0.1875 0q-1.125 1.40625 -2.296875 2.296875q-1.171875 0.890625 -2.703125 1.3125q-1.515625 0.421875 -3.703125 0.421875q-2.3125 0 -4.15625 -0.890625q-1.84375 -0.890625 -2.90625 -2.734375q-1.046875 -1.84375 -1.046875 -4.671875q0 -4.171875 2.921875 -6.15625q2.9375 -1.984375 8.796875 -2.1875l4.546875 -0.140625l0 -1.15625q0 -2.0625 -1.078125 -3.015625q-1.078125 -0.96875 -3.0 -0.96875q-1.890625 0 -3.71875 0.546875q-1.828125 0.53125 -3.65625 1.359375l-2.375 -4.828125q2.09375 -1.109375 4.671875 -1.734375q2.59375 -0.640625 5.359375 -0.640625zm3.796875 14.609375l-2.765625 0.09375q-3.46875 0.09375 -4.8125 1.25q-1.34375 1.140625 -1.34375 3.015625q0 1.640625 0.953125 2.328125q0.96875 0.6875 2.515625 0.6875q2.296875 0 3.875 -1.359375q1.578125 -1.359375 1.578125 -3.859375l0 -2.15625zm22.757812 12.609375q-4.375 0 -7.140625 -3.4375q-2.75 -3.4375 -2.75 -10.09375q0 -6.71875 2.78125 -10.171875q2.796875 -3.46875 7.296875 -3.46875q1.875 0 3.296875 0.515625q1.4375 0.515625 2.484375 1.390625q1.046875 0.859375 1.765625 1.9375l0.234375 0q-0.140625 -0.75 -0.34375 -2.203125q-0.1875 -1.46875 -0.1875 -3.015625l0 -8.390625l7.171875 0l0 36.46875l-5.484375 0l-1.390625 -3.40625l-0.296875 0q-0.6875 1.078125 -1.703125 1.96875q-1.015625 0.875 -2.421875 1.390625q-1.40625 0.515625 -3.3125 0.515625zm2.515625 -5.703125q2.921875 0 4.125 -1.734375q1.21875 -1.75 1.28125 -5.265625l0 -0.78125q0 -3.8125 -1.171875 -5.84375q-1.171875 -2.03125 -4.359375 -2.03125q-2.359375 0 -3.703125 2.046875q-1.328125 2.03125 -1.328125 5.875q0 3.84375 1.34375 5.796875q1.34375 1.9375 3.8125 1.9375zm26.71875 -20.96875l0 26.203125l-7.15625 0l0 -26.203125l7.15625 0zm-3.5625 -10.265625q1.59375 0 2.734375 0.734375q1.15625 0.734375 1.15625 2.75q0 2.0 -1.15625 2.765625q-1.140625 0.75 -2.734375 0.75q-1.625 0 -2.765625 -0.75q-1.125 -0.765625 -1.125 -2.765625q0 -2.015625 1.125 -2.75q1.140625 -0.734375 2.765625 -0.734375zm34.867188 23.3125q0 3.28125 -0.875 5.8125q-0.875 2.53125 -2.5625 4.28125q-1.671875 1.75 -4.03125 2.640625q-2.34375 0.890625 -5.296875 0.890625q-2.765625 0 -5.078125 -0.890625q-2.3125 -0.890625 -4.015625 -2.640625q-1.6875 -1.75 -2.625 -4.28125q-0.921875 -2.53125 -0.921875 -5.8125q0 -4.359375 1.546875 -7.375q1.546875 -3.03125 4.40625 -4.59375q2.859375 -1.578125 6.828125 -1.578125q3.671875 0 6.515625 1.578125q2.859375 1.5625 4.484375 4.59375q1.625 3.015625 1.625 7.375zm-18.109375 0q0 2.578125 0.5625 4.34375q0.5625 1.75 1.75 2.640625q1.203125 0.890625 3.125 0.890625q1.890625 0 3.078125 -0.890625q1.1875 -0.890625 1.734375 -2.640625q0.546875 -1.765625 0.546875 -4.34375q0 -2.59375 -0.546875 -4.3125q-0.546875 -1.734375 -1.75 -2.59375q-1.1875 -0.875 -3.109375 -0.875q-2.84375 0 -4.125 1.953125q-1.265625 1.9375 -1.265625 5.828125zm37.796875 13.15625l-7.265625 0l0 -28.21875l-9.296875 0l0 -6.046875l25.875 0l0 6.046875l-9.3125 0l0 28.21875zm21.171875 -36.46875l0 7.421875q0 1.953125 -0.140625 3.71875q-0.125 1.75 -0.1875 2.46875l0.375 0q0.84375 -1.359375 2.0 -2.203125q1.15625 -0.84375 2.5625 -1.234375q1.40625 -0.40625 3.03125 -0.40625q2.828125 0 4.9375 1.0q2.109375 1.0 3.28125 3.125q1.171875 2.109375 1.171875 5.484375l0 17.09375l-7.140625 0l0 -15.3125q0 -2.8125 -1.03125 -4.234375q-1.03125 -1.4375 -3.1875 -1.4375q-2.15625 0 -3.40625 1.0q-1.234375 1.0 -1.75 2.9375q-0.515625 1.921875 -0.515625 4.71875l0 12.328125l-7.15625 0l0 -36.46875l7.15625 0zm35.203125 9.765625q3.625 0 6.25 1.40625q2.625 1.390625 4.046875 4.046875q1.4375 2.640625 1.4375 6.453125l0 3.46875l-16.890625 0q0.109375 3.03125 1.8125 4.75q1.703125 1.71875 4.71875 1.71875q2.515625 0 4.59375 -0.515625q2.09375 -0.515625 4.296875 -1.546875l0 5.53125q-1.953125 0.96875 -4.078125 1.40625q-2.109375 0.453125 -5.140625 0.453125q-3.9375 0 -6.96875 -1.453125q-3.03125 -1.453125 -4.765625 -4.421875q-1.71875 -2.984375 -1.71875 -7.515625q0 -4.59375 1.5625 -7.640625q1.5625 -3.0625 4.34375 -4.59375q2.796875 -1.546875 6.5 -1.546875zm0.046875 5.09375q-2.09375 0 -3.46875 1.34375q-1.359375 1.328125 -1.578125 4.1875l10.03125 0q-0.015625 -1.59375 -0.578125 -2.828125q-0.546875 -1.25 -1.640625 -1.96875q-1.078125 -0.734375 -2.765625 -0.734375zm32.125 -5.09375q0.546875 0 1.25 0.0625q0.71875 0.0625 1.171875 0.15625l-0.546875 6.703125q-0.34375 -0.125 -1.0 -0.171875q-0.640625 -0.0625 -1.109375 -0.0625q-1.375 0 -2.6875 0.359375q-1.296875 0.34375 -2.328125 1.125q-1.03125 0.78125 -1.625 2.0625q-0.59375 1.28125 -0.59375 3.125l0 13.34375l-7.15625 0l0 -26.203125l5.421875 0l1.046875 4.40625l0.359375 0q0.765625 -1.34375 1.921875 -2.453125q1.171875 -1.109375 2.65625 -1.78125q1.484375 -0.671875 3.21875 -0.671875zm17.90625 -0.046875q5.28125 0 8.09375 2.296875q2.8125 2.296875 2.8125 6.984375l0 17.46875l-5.0 0l-1.375 -3.5625l-0.1875 0q-1.125 1.40625 -2.296875 2.296875q-1.171875 0.890625 -2.703125 1.3125q-1.515625 0.421875 -3.703125 0.421875q-2.3125 0 -4.15625 -0.890625q-1.84375 -0.890625 -2.90625 -2.734375q-1.046875 -1.84375 -1.046875 -4.671875q0 -4.171875 2.921875 -6.15625q2.9375 -1.984375 8.796875 -2.1875l4.546875 -0.140625l0 -1.15625q0 -2.0625 -1.078125 -3.015625q-1.078125 -0.96875 -3.0 -0.96875q-1.890625 0 -3.71875 0.546875q-1.828125 0.53125 -3.65625 1.359375l-2.375 -4.828125q2.09375 -1.109375 4.671875 -1.734375q2.59375 -0.640625 5.359375 -0.640625zm3.796875 14.609375l-2.765625 0.09375q-3.46875 0.09375 -4.8125 1.25q-1.34375 1.140625 -1.34375 3.015625q0 1.640625 0.953125 2.328125q0.96875 0.6875 2.515625 0.6875q2.296875 0 3.875 -1.359375q1.578125 -1.359375 1.578125 -3.859375l0 -2.15625zm29.039062 -14.5625q4.4375 0 7.15625 3.453125q2.734375 3.4375 2.734375 10.09375q0 4.453125 -1.296875 7.5q-1.28125 3.03125 -3.5625 4.578125q-2.265625 1.546875 -5.21875 1.546875q-1.890625 0 -3.25 -0.484375q-1.359375 -0.484375 -2.328125 -1.234375q-0.953125 -0.765625 -1.65625 -1.640625l-0.375 0q0.1875 0.9375 0.28125 1.9375q0.09375 0.984375 0.09375 1.921875l0 10.5625l-7.15625 0l0 -37.734375l5.8125 0l1.015625 3.390625l0.328125 0q0.703125 -1.046875 1.703125 -1.9375q1.015625 -0.890625 2.421875 -1.421875q1.421875 -0.53125 3.296875 -0.53125zm-2.296875 5.71875q-1.875 0 -2.984375 0.78125q-1.09375 0.765625 -1.59375 2.3125q-0.5 1.546875 -0.546875 3.921875l0 0.765625q0 2.53125 0.46875 4.296875q0.484375 1.75 1.625 2.671875q1.140625 0.90625 3.125 0.90625q1.640625 0 2.6875 -0.90625q1.0625 -0.921875 1.59375 -2.6875q0.53125 -1.765625 0.53125 -4.328125q0 -3.84375 -1.203125 -5.78125q-1.1875 -1.953125 -3.703125 -1.953125zm14.34375 -5.21875l7.828125 0l4.953125 14.734375q0.234375 0.703125 0.390625 1.4375q0.171875 0.71875 0.28125 1.5q0.125 0.765625 0.1875 1.609375l0.140625 0q0.140625 -1.265625 0.390625 -2.359375q0.25 -1.109375 0.625 -2.1875l4.84375 -14.734375l7.671875 0l-11.09375 29.5625q-1.0 2.71875 -2.625 4.53125q-1.609375 1.8125 -3.71875 2.71875q-2.09375 0.921875 -4.59375 0.921875q-1.21875 0 -2.109375 -0.125q-0.890625 -0.125 -1.53125 -0.265625l0 -5.671875q0.5 0.109375 1.25 0.203125q0.75 0.09375 1.5625 0.09375q1.5 0 2.578125 -0.640625q1.078125 -0.625 1.796875 -1.6875q0.734375 -1.0625 1.15625 -2.328125l0.421875 -1.296875l-10.40625 -26.015625z" fill-rule="nonzero"/><path fill="#ff6e21" d="m475.31525 228.90309l-2.484375 -8.15625l-12.5 0l-2.484375 8.15625l-7.828125 0l12.09375 -34.40625l8.890625 0l12.140625 34.40625l-7.828125 0zm-4.21875 -14.25l-2.484375 -7.96875q-0.234375 -0.796875 -0.625 -2.046875q-0.390625 -1.265625 -0.78125 -2.5625q-0.375 -1.296875 -0.609375 -2.265625q-0.234375 0.96875 -0.65625 2.390625q-0.40625 1.40625 -0.78125 2.671875q-0.375 1.265625 -0.53125 1.8125l-2.46875 7.96875l8.9375 0zm16.351562 14.25l0 -34.265625l7.265625 0l0 34.265625l-7.265625 0zm42.875 0l-8.25 -26.890625l-0.21875 0q0.046875 0.96875 0.15625 2.90625q0.109375 1.921875 0.203125 4.109375q0.09375 2.171875 0.09375 3.9375l0 15.9375l-6.5 0l0 -34.265625l9.890625 0l8.109375 26.203125l0.140625 0l8.609375 -26.203125l9.890625 0l0 34.265625l-6.78125 0l0 -16.21875q0 -1.625 0.0625 -3.734375q0.0625 -2.109375 0.15625 -4.015625q0.09375 -1.90625 0.140625 -2.875l-0.21875 0l-8.828125 26.84375l-6.65625 0zm53.992188 -13.15625q0 3.28125 -0.875 5.8125q-0.875 2.53125 -2.5625 4.28125q-1.671875 1.75 -4.03125 2.640625q-2.34375 0.890625 -5.296875 0.890625q-2.765625 0 -5.078125 -0.890625q-2.3125 -0.890625 -4.015625 -2.640625q-1.6875 -1.75 -2.625 -4.28125q-0.921875 -2.53125 -0.921875 -5.8125q0 -4.359375 1.546875 -7.375q1.546875 -3.03125 4.40625 -4.59375q2.859375 -1.578125 6.828125 -1.578125q3.671875 0 6.515625 1.578125q2.859375 1.5625 4.484375 4.59375q1.625 3.015625 1.625 7.375zm-18.109375 0q0 2.578125 0.5625 4.34375q0.5625 1.75 1.75 2.640625q1.203125 0.890625 3.125 0.890625q1.890625 0 3.078125 -0.890625q1.1875 -0.890625 1.734375 -2.640625q0.546875 -1.765625 0.546875 -4.34375q0 -2.59375 -0.546875 -4.3125q-0.546875 -1.734375 -1.75 -2.59375q-1.1875 -0.875 -3.109375 -0.875q-2.84375 0 -4.125 1.953125q-1.265625 1.9375 -1.265625 5.828125zm32.3125 13.625q-4.375 0 -7.140625 -3.4375q-2.75 -3.4375 -2.75 -10.09375q0 -6.71875 2.78125 -10.171875q2.796875 -3.46875 7.296875 -3.46875q1.875 0 3.296875 0.515625q1.4375 0.515625 2.484375 1.390625q1.046875 0.859375 1.765625 1.9375l0.234375 0q-0.140625 -0.75 -0.34375 -2.203125q-0.1875 -1.46875 -0.1875 -3.015625l0 -8.390625l7.171875 0l0 36.46875l-5.484375 0l-1.390625 -3.40625l-0.296875 0q-0.6875 1.078125 -1.703125 1.96875q-1.015625 0.875 -2.421875 1.390625q-1.40625 0.515625 -3.3125 0.515625zm2.515625 -5.703125q2.921875 0 4.125 -1.734375q1.21875 -1.75 1.28125 -5.265625l0 -0.78125q0 -3.8125 -1.171875 -5.84375q-1.171875 -2.03125 -4.359375 -2.03125q-2.359375 0 -3.703125 2.046875q-1.328125 2.03125 -1.328125 5.875q0 3.84375 1.34375 5.796875q1.34375 1.9375 3.8125 1.9375zm30.375 -21.46875q3.625 0 6.25 1.40625q2.625 1.390625 4.046875 4.046875q1.4375 2.640625 1.4375 6.453125l0 3.46875l-16.890625 0q0.109375 3.03125 1.8125 4.75q1.703125 1.71875 4.71875 1.71875q2.515625 0 4.59375 -0.515625q2.09375 -0.515625 4.296875 -1.546875l0 5.53125q-1.953125 0.96875 -4.078125 1.40625q-2.109375 0.453125 -5.140625 0.453125q-3.9375 0 -6.96875 -1.453125q-3.03125 -1.453125 -4.765625 -4.421875q-1.71875 -2.984375 -1.71875 -7.515625q0 -4.59375 1.5625 -7.640625q1.5625 -3.0625 4.34375 -4.59375q2.796875 -1.546875 6.5 -1.546875zm0.046875 5.09375q-2.09375 0 -3.46875 1.34375q-1.359375 1.328125 -1.578125 4.1875l10.03125 0q-0.015625 -1.59375 -0.578125 -2.828125q-0.546875 -1.25 -1.640625 -1.96875q-1.078125 -0.734375 -2.765625 -0.734375zm24.65625 21.609375l-7.15625 0l0 -36.46875l7.15625 0l0 36.46875zm35.085938 -28.71875q-2.09375 0 -3.703125 0.8125q-1.59375 0.8125 -2.6875 2.34375q-1.09375 1.515625 -1.65625 3.671875q-0.5625 2.15625 -0.5625 4.84375q0 3.640625 0.90625 6.203125q0.90625 2.5625 2.796875 3.921875q1.90625 1.34375 4.90625 1.34375q2.078125 0 4.171875 -0.46875q2.109375 -0.46875 4.5625 -1.34375l0 6.09375q-2.265625 0.9375 -4.46875 1.34375q-2.203125 0.421875 -4.953125 0.421875q-5.296875 0 -8.703125 -2.1875q-3.40625 -2.203125 -5.046875 -6.140625q-1.640625 -3.953125 -1.640625 -9.234375q0 -3.890625 1.046875 -7.125q1.0625 -3.234375 3.09375 -5.59375q2.046875 -2.375 5.046875 -3.65625q3.0 -1.296875 6.890625 -1.296875q2.546875 0 5.109375 0.65625q2.578125 0.640625 4.921875 1.765625l-2.34375 5.90625q-1.921875 -0.921875 -3.875 -1.59375q-1.9375 -0.6875 -3.8125 -0.6875zm26.195312 1.96875q5.28125 0 8.09375 2.296875q2.8125 2.296875 2.8125 6.984375l0 17.46875l-5.0 0l-1.375 -3.5625l-0.1875 0q-1.125 1.40625 -2.296875 2.296875q-1.171875 0.890625 -2.703125 1.3125q-1.515625 0.421875 -3.703125 0.421875q-2.3125 0 -4.15625 -0.890625q-1.84375 -0.890625 -2.90625 -2.734375q-1.046875 -1.84375 -1.046875 -4.671875q0 -4.171875 2.921875 -6.15625q2.9375 -1.984375 8.796875 -2.1875l4.546875 -0.140625l0 -1.15625q0 -2.0625 -1.078125 -3.015625q-1.078125 -0.96875 -3.0 -0.96875q-1.890625 0 -3.71875 0.546875q-1.828125 0.53125 -3.65625 1.359375l-2.375 -4.828125q2.09375 -1.109375 4.671875 -1.734375q2.59375 -0.640625 5.359375 -0.640625zm3.796875 14.609375l-2.765625 0.09375q-3.46875 0.09375 -4.8125 1.25q-1.34375 1.140625 -1.34375 3.015625q0 1.640625 0.953125 2.328125q0.96875 0.6875 2.515625 0.6875q2.296875 0 3.875 -1.359375q1.578125 -1.359375 1.578125 -3.859375l0 -2.15625zm29.085938 -14.5625q0.546875 0 1.25 0.0625q0.71875 0.0625 1.171875 0.15625l-0.546875 6.703125q-0.34375 -0.125 -1.0 -0.171875q-0.640625 -0.0625 -1.109375 -0.0625q-1.375 0 -2.6875 0.359375q-1.296875 0.34375 -2.328125 1.125q-1.03125 0.78125 -1.625 2.0625q-0.59375 1.28125 -0.59375 3.125l0 13.34375l-7.15625 0l0 -26.203125l5.421875 0l1.046875 4.40625l0.359375 0q0.765625 -1.34375 1.921875 -2.453125q1.171875 -1.109375 2.65625 -1.78125q1.484375 -0.671875 3.21875 -0.671875zm15.46875 27.171875q-4.375 0 -7.140625 -3.4375q-2.75 -3.4375 -2.75 -10.09375q0 -6.71875 2.78125 -10.171875q2.796875 -3.46875 7.296875 -3.46875q1.875 0 3.296875 0.515625q1.4375 0.515625 2.484375 1.390625q1.046875 0.859375 1.765625 1.9375l0.234375 0q-0.140625 -0.75 -0.34375 -2.203125q-0.1875 -1.46875 -0.1875 -3.015625l0 -8.390625l7.171875 0l0 36.46875l-5.484375 0l-1.390625 -3.40625l-0.296875 0q-0.6875 1.078125 -1.703125 1.96875q-1.015625 0.875 -2.421875 1.390625q-1.40625 0.515625 -3.3125 0.515625zm2.515625 -5.703125q2.921875 0 4.125 -1.734375q1.21875 -1.75 1.28125 -5.265625l0 -0.78125q0 -3.8125 -1.171875 -5.84375q-1.171875 -2.03125 -4.359375 -2.03125q-2.359375 0 -3.703125 2.046875q-1.328125 2.03125 -1.328125 5.875q0 3.84375 1.34375 5.796875q1.34375 1.9375 3.8125 1.9375z" fill-rule="nonzero"/><path fill="#999999" d="m609.65436 263.3387q-0.609375 2.546875 -1.140625 4.40625l-3.046875 11.078125l-3.109375 0l-6.109375 -18.5625l3.0625 0l3.4375 11.5625q0.6875 2.296875 1.046875 3.65625l0.078125 0q0.3125 -1.40625 1.03125 -4.0625l3.109375 -11.15625l3.390625 0l3.109375 11.15625q0.625 2.265625 1.03125 4.0625l0.078125 0q0.46875 -1.796875 1.03125 -3.65625l3.4375 -11.5625l3.078125 0l-6.125 18.5625l-3.140625 0l-3.046875 -11.078125q-0.546875 -1.96875 -1.125 -4.40625l-0.078125 0zm27.398438 -0.609375l-0.234375 0q-1.078125 0 -2.109375 0.203125q-1.03125 0.1875 -1.953125 0.59375q-0.90625 0.390625 -1.640625 0.984375q-0.71875 0.578125 -1.21875 1.375l0 12.9375l-3.015625 0l0 -18.5625l2.34375 0l0.578125 2.953125l0.0625 0q0.453125 -0.71875 1.09375 -1.34375q0.65625 -0.625 1.46875 -1.09375q0.828125 -0.46875 1.796875 -0.734375q0.984375 -0.265625 2.0625 -0.265625q0.203125 0 0.40625 0.015625q0.203125 0 0.359375 0.03125l0 2.90625zm3.4140625 16.09375l0 -18.5625l3.03125 0l0 18.5625l-3.03125 0zm-0.078125 -22.875l0 -3.375l3.1875 0l0 3.375l-3.1875 0zm18.949219 22.921875q-0.390625 0.15625 -1.203125 0.28125q-0.796875 0.140625 -1.90625 0.15625q-1.46875 0 -2.546875 -0.359375q-1.0625 -0.359375 -1.78125 -1.03125q-0.703125 -0.671875 -1.0625 -1.625q-0.34375 -0.96875 -0.34375 -2.140625l0 -11.28125l-3.578125 0l0 -2.609375l3.578125 0l0 -5.078125l3.015625 0l0 5.078125l5.546875 0l0 2.609375l-5.546875 0l0 10.8125q0 0.640625 0.1875 1.1875q0.1875 0.546875 0.578125 0.953125q0.40625 0.40625 1.03125 0.625q0.625 0.21875 1.515625 0.21875q0.59375 0 1.265625 -0.09375q0.6875 -0.09375 1.25 -0.25l0 2.546875zm4.2929688 -0.046875l0 -18.5625l3.03125 0l0 18.5625l-3.03125 0zm-0.078125 -22.875l0 -3.375l3.1875 0l0 3.375l-3.1875 0zm12.089844 6.890625l0.0625 0q0.5 -0.640625 1.109375 -1.1875q0.625 -0.5625 1.390625 -0.984375q0.765625 -0.421875 1.671875 -0.65625q0.90625 -0.234375 1.984375 -0.234375q1.265625 0 2.375 0.359375q1.109375 0.34375 1.921875 1.125q0.828125 0.78125 1.3125 2.046875q0.484375 1.25 0.484375 3.09375l0 12.421875l-3.03125 0l0 -11.9375q0 -2.40625 -0.9375 -3.453125q-0.921875 -1.0625 -2.703125 -1.0625q-1.5625 0 -3.03125 0.875q-1.453125 0.875 -2.515625 2.390625l0 13.1875l-3.015625 0l0 -18.5625l2.34375 0l0.578125 2.578125zm20.25 6.828125q0 2.1875 0.53125 3.578125q0.53125 1.375 1.34375 2.15625q0.8125 0.765625 1.765625 1.046875q0.953125 0.28125 1.8125 0.28125q1.40625 0 2.640625 -0.5625q1.234375 -0.5625 2.171875 -1.546875l0 -9.703125q-0.265625 -0.359375 -0.71875 -0.796875q-0.4375 -0.453125 -1.03125 -0.828125q-0.59375 -0.390625 -1.359375 -0.65625q-0.765625 -0.265625 -1.65625 -0.265625q-1.359375 0 -2.390625 0.546875q-1.015625 0.53125 -1.71875 1.5q-0.6875 0.953125 -1.046875 2.296875q-0.34375 1.328125 -0.34375 2.953125zm5.109375 -9.890625q1.203125 0.015625 2.09375 0.3125q0.90625 0.296875 1.546875 0.734375q0.65625 0.4375 1.03125 0.875q0.375 0.421875 0.515625 0.671875l0.078125 0l0.625 -2.109375l2.28125 0l0 19.65625q0 2.15625 -0.703125 3.734375q-0.703125 1.59375 -1.96875 2.640625q-1.265625 1.0625 -3.0625 1.578125q-1.78125 0.53125 -3.953125 0.53125q-1.828125 0 -3.28125 -0.328125q-1.4375 -0.328125 -2.265625 -0.765625l0 -2.5625q0.671875 0.265625 1.296875 0.453125q0.625 0.1875 1.28125 0.3125q0.671875 0.125 1.359375 0.1875q0.703125 0.0625 1.53125 0.0625q3.265625 0 5.0 -1.53125q1.75 -1.515625 1.75 -4.640625l0 -2.484375l-0.0625 0q-1.0 1.09375 -2.328125 1.65625q-1.3125 0.546875 -3.0 0.546875q-0.78125 0 -1.6875 -0.171875q-0.890625 -0.171875 -1.796875 -0.59375q-0.890625 -0.421875 -1.71875 -1.109375q-0.8125 -0.703125 -1.4375 -1.75q-0.625 -1.046875 -1.015625 -2.46875q-0.375 -1.421875 -0.375 -3.296875q0 -2.59375 0.703125 -4.5q0.703125 -1.90625 1.84375 -3.15625q1.15625 -1.25 2.640625 -1.859375q1.484375 -0.625 3.078125 -0.625zm31.832031 19.09375q-0.390625 0.15625 -1.203125 0.28125q-0.796875 0.140625 -1.90625 0.15625q-1.46875 0 -2.546875 -0.359375q-1.0625 -0.359375 -1.78125 -1.03125q-0.703125 -0.671875 -1.0625 -1.625q-0.34375 -0.96875 -0.34375 -2.140625l0 -11.28125l-3.578125 0l0 -2.609375l3.578125 0l0 -5.078125l3.015625 0l0 5.078125l5.546875 0l0 2.609375l-5.546875 0l0 10.8125q0 0.640625 0.1875 1.1875q0.1875 0.546875 0.578125 0.953125q0.40625 0.40625 1.03125 0.625q0.625 0.21875 1.515625 0.21875q0.59375 0 1.265625 -0.09375q0.6875 -0.09375 1.25 -0.25l0 2.546875zm17.480469 -9.3125q0 -1.71875 -0.421875 -3.046875q-0.421875 -1.34375 -1.171875 -2.265625q-0.75 -0.9375 -1.796875 -1.40625q-1.03125 -0.484375 -2.25 -0.484375q-1.234375 0 -2.28125 0.484375q-1.03125 0.46875 -1.78125 1.40625q-0.75 0.921875 -1.171875 2.265625q-0.421875 1.328125 -0.421875 3.046875q0 1.703125 0.421875 3.046875q0.421875 1.328125 1.1875 2.25q0.765625 0.921875 1.796875 1.40625q1.03125 0.46875 2.265625 0.46875q1.234375 0 2.25 -0.46875q1.03125 -0.484375 1.78125 -1.40625q0.75 -0.921875 1.171875 -2.25q0.421875 -1.34375 0.421875 -3.046875zm3.15625 0q0 2.1875 -0.625 3.984375q-0.625 1.796875 -1.765625 3.078125q-1.140625 1.28125 -2.765625 1.984375q-1.609375 0.703125 -3.625 0.703125q-2.078125 0 -3.703125 -0.703125q-1.625 -0.703125 -2.78125 -1.984375q-1.140625 -1.28125 -1.75 -3.078125q-0.59375 -1.796875 -0.59375 -3.984375q0 -2.203125 0.625 -4.0q0.625 -1.796875 1.765625 -3.078125q1.140625 -1.296875 2.765625 -2.0q1.640625 -0.703125 3.65625 -0.703125q2.046875 0 3.6875 0.703125q1.640625 0.703125 2.765625 2.0q1.140625 1.28125 1.734375 3.078125q0.609375 1.796875 0.609375 4.0zm18.171875 0q0 -1.71875 -0.421875 -3.046875q-0.421875 -1.34375 -1.171875 -2.265625q-0.75 -0.9375 -1.796875 -1.40625q-1.03125 -0.484375 -2.25 -0.484375q-1.234375 0 -2.28125 0.484375q-1.03125 0.46875 -1.78125 1.40625q-0.75 0.921875 -1.171875 2.265625q-0.421875 1.328125 -0.421875 3.046875q0 1.703125 0.421875 3.046875q0.421875 1.328125 1.1875 2.25q0.765625 0.921875 1.796875 1.40625q1.03125 0.46875 2.265625 0.46875q1.234375 0 2.25 -0.46875q1.03125 -0.484375 1.78125 -1.40625q0.75 -0.921875 1.171875 -2.25q0.421875 -1.34375 0.421875 -3.046875zm3.15625 0q0 2.1875 -0.625 3.984375q-0.625 1.796875 -1.765625 3.078125q-1.140625 1.28125 -2.765625 1.984375q-1.609375 0.703125 -3.625 0.703125q-2.078125 0 -3.703125 -0.703125q-1.625 -0.703125 -2.78125 -1.984375q-1.140625 -1.28125 -1.75 -3.078125q-0.59375 -1.796875 -0.59375 -3.984375q0 -2.203125 0.625 -4.0q0.625 -1.796875 1.765625 -3.078125q1.140625 -1.296875 2.765625 -2.0q1.640625 -0.703125 3.65625 -0.703125q2.046875 0 3.6875 0.703125q1.640625 0.703125 2.765625 2.0q1.140625 1.28125 1.734375 3.078125q0.609375 1.796875 0.609375 4.0zm4.984375 9.265625l0 -28.28125l3.03125 0l0 28.28125l-3.03125 0z" fill-rule="nonzero"/><path fill="#ffffff" d="m247.3202 116.2231l146.00993 0l0 0c7.7450256 0 15.172821 3.0766983 20.649414 8.553268c5.4765625 5.4765625 8.553253 12.904373 8.553253 20.649414l0 223.6792l-175.2126 0z" fill-rule="evenodd"/><path stroke="#1c4587" stroke-width="4.0" stroke-linejoin="round" stroke-linecap="butt" d="m247.3202 116.2231l146.00993 0l0 0c7.7450256 0 15.172821 3.0766983 20.649414 8.553268c5.4765625 5.4765625 8.553253 12.904373 8.553253 20.649414l0 223.6792l-175.2126 0z" fill-rule="evenodd"/><path fill="#ffffff" d="m213.0316 104.732285l68.7032 0c1.4604492 0 2.8611145 0.58016205 3.8937988 1.6128693c1.0327148 1.0326996 1.612854 2.433342 1.612854 3.8937988l0 11.013016l0 0c0 9.123566 -7.3960876 16.519684 -16.519684 16.519684l-46.677155 0c-9.123566 0 -16.519684 -7.396118 -16.519684 -16.519684l0 -11.013016l0 0c0 -3.0412445 2.4654236 -5.506668 5.506668 -5.506668z" fill-rule="evenodd"/><path stroke="#1c4587" stroke-width="4.0" stroke-linejoin="round" stroke-linecap="butt" d="m213.0316 104.732285l68.7032 0c1.4604492 0 2.8611145 0.58016205 3.8937988 1.6128693c1.0327148 1.0326996 1.612854 2.433342 1.612854 3.8937988l0 11.013016l0 0c0 9.123566 -7.3960876 16.519684 -16.519684 16.519684l-46.677155 0c-9.123566 0 -16.519684 -7.396118 -16.519684 -16.519684l0 -11.013016l0 0c0 -3.0412445 2.4654236 -5.506668 5.506668 -5.506668z" fill-rule="evenodd"/><path fill="#000000" fill-opacity="0.0" d="m272.042 262.56775l120.75067 0l0 63.433075l168.03674 0" fill-rule="evenodd"/><path stroke="#ff6e21" stroke-width="4.0" stroke-linejoin="round" stroke-linecap="butt" d="m272.042 262.56775l120.75067 0l0 63.433075l152.87677 0" fill-rule="evenodd"/><path stroke="#ff6e21" stroke-width="4.0" stroke-linecap="butt" d="m558.8294 326.00082c0 3.6340332 -2.945984 6.5799866 -6.580017 6.5799866c-3.6340332 0 -6.580017 -2.9459534 -6.580017 -6.5799866c0 -3.6340332 2.945984 -6.580017 6.580017 -6.580017c3.6340332 0 6.580017 2.945984 6.580017 6.580017z" fill-rule="nonzero"/><path fill="#000000" fill-opacity="0.0" d="m272.042 293.92972l112.188965 0.5354309" fill-rule="evenodd"/><path stroke="#ff6e21" stroke-width="4.0" stroke-linejoin="round" stroke-linecap="butt" d="m272.042 293.92972l112.188965 0.5354309" fill-rule="evenodd"/><path fill="#ffffff" d="m236.24934 145.05249l14.362198 0l0 61.76378l-14.362198 0z" fill-rule="evenodd"/><path stroke="#ffffff" stroke-width="1.0" stroke-linejoin="round" stroke-linecap="butt" d="m236.24934 145.05249l14.362198 0l0 61.76378l-14.362198 0z" fill-rule="evenodd"/><path fill="#1c4587" d="m218.09361 155.61284l0 0c0 -1.3478394 1.0926514 -2.4404907 2.4404907 -2.4404907l50.237137 0c0.6472473 0 1.2680054 0.25712585 1.7256775 0.71481323c0.45767212 0.45767212 0.71481323 1.0784149 0.71481323 1.7256775l0 0.12690735l0 0c0 1.3478394 -1.0926514 2.4404755 -2.4404907 2.4404755l-50.237137 0c-1.3478394 0 -2.4404907 -1.0926361 -2.4404907 -2.4404755z" fill-rule="evenodd"/><path stroke="#1c4587" stroke-width="1.0" stroke-linejoin="round" stroke-linecap="butt" d="m218.09361 155.61284l0 0c0 -1.3478394 1.0926514 -2.4404907 2.4404907 -2.4404907l50.237137 0c0.6472473 0 1.2680054 0.25712585 1.7256775 0.71481323c0.45767212 0.45767212 0.71481323 1.0784149 0.71481323 1.7256775l0 0.12690735l0 0c0 1.3478394 -1.0926514 2.4404755 -2.4404907 2.4404755l-50.237137 0c-1.3478394 0 -2.4404907 -1.0926361 -2.4404907 -2.4404755z" fill-rule="evenodd"/><path fill="#1c4587" d="m209.74716 173.79788l0 0c0 -1.3478394 1.0926361 -2.4404907 2.4404755 -2.4404907l74.835556 0c0.64727783 0 1.2680054 0.25712585 1.725708 0.714798c0.45767212 0.45768738 0.7147827 1.0784302 0.7147827 1.7256927l0 0.12689209l0 0c0 1.3478546 -1.0926208 2.4404907 -2.4404907 2.4404907l-74.835556 0c-1.3478394 0 -2.4404755 -1.0926361 -2.4404755 -2.4404907z" fill-rule="evenodd"/><path stroke="#1c4587" stroke-width="1.0" stroke-linejoin="round" stroke-linecap="butt" d="m209.74716 173.79788l0 0c0 -1.3478394 1.0926361 -2.4404907 2.4404755 -2.4404907l74.835556 0c0.64727783 0 1.2680054 0.25712585 1.725708 0.714798c0.45767212 0.45768738 0.7147827 1.0784302 0.7147827 1.7256927l0 0.12689209l0 0c0 1.3478546 -1.0926208 2.4404907 -2.4404907 2.4404907l-74.835556 0c-1.3478394 0 -2.4404755 -1.0926361 -2.4404755 -2.4404907z" fill-rule="evenodd"/><path fill="#1c4587" d="m194.41382 194.53935l0 0c0 -1.3478394 1.0926514 -2.4404907 2.4404907 -2.4404907l105.512726 0c0.6472473 0 1.2680054 0.25712585 1.7256775 0.714798c0.45770264 0.45768738 0.71481323 1.0784302 0.71481323 1.7256927l0 0.12689209l0 0c0 1.3478546 -1.0926514 2.4404907 -2.4404907 2.4404907l-105.512726 0c-1.3478394 0 -2.4404907 -1.0926361 -2.4404907 -2.4404907z" fill-rule="evenodd"/><path stroke="#1c4587" stroke-width="1.0" stroke-linejoin="round" stroke-linecap="butt" d="m194.41382 194.53935l0 0c0 -1.3478394 1.0926514 -2.4404907 2.4404907 -2.4404907l105.512726 0c0.6472473 0 1.2680054 0.25712585 1.7256775 0.714798c0.45770264 0.45768738 0.71481323 1.0784302 0.71481323 1.7256927l0 0.12689209l0 0c0 1.3478546 -1.0926514 2.4404907 -2.4404907 2.4404907l-105.512726 0c-1.3478394 0 -2.4404907 -1.0926361 -2.4404907 -2.4404907z" fill-rule="evenodd"/><path fill="#000000" fill-opacity="0.0" d="m399.62204 293.83438l101.25986 0.72442627" fill-rule="evenodd"/><path stroke="#ff6e21" stroke-width="4.0" stroke-linejoin="round" stroke-linecap="butt" d="m399.62204 293.8344l86.10025 0.6159363" fill-rule="evenodd"/><path stroke="#ff6e21" stroke-width="4.0" stroke-linecap="butt" d="m498.88193 294.5445c-0.025970459 3.6339417 -2.9929504 6.558777 -6.626892 6.532776c-3.6339417 -0.026000977 -6.5587463 -2.992981 -6.5327454 -6.6269226c0.025970459 -3.6339417 2.9929504 -6.5587463 6.626892 -6.5327454c3.6339417 0.026000977 6.5587463 2.9929504 6.5327454 6.626892z" fill-rule="nonzero"/><path fill="#000000" fill-opacity="0.0" d="m272.042 231.24052l85.5748 0.69291687" fill-rule="evenodd"/><path stroke="#ff6e21" stroke-width="4.0" stroke-linejoin="round" stroke-linecap="butt" d="m272.042 231.24052l85.5748 0.69291687" fill-rule="evenodd"/><path fill="#000000" fill-opacity="0.0" d="m427.50797 353.97345l203.68503 1.102356" fill-rule="evenodd"/><path stroke="#ff6e21" stroke-width="4.0" stroke-linejoin="round" stroke-linecap="butt" d="m427.50797 353.97342l188.52524 1.0202942" fill-rule="evenodd"/><path stroke="#ff6e21" stroke-width="4.0" stroke-linecap="butt" d="m629.19305 355.06497c-0.019714355 3.6339722 -2.9815674 6.563965 -6.6155396 6.544281c-3.6339722 -0.01965332 -6.563965 -2.9815369 -6.5443115 -6.615509c0.01965332 -3.6339722 2.9815674 -6.563965 6.6155396 -6.544281c3.6339722 0.01965332 6.563965 2.9815063 6.5443115 6.615509z" fill-rule="nonzero"/></g></svg>